<?xml version="1.0" standalone="no"?>
<!DOCTYPE svg PUBLIC "-//W3C//DTD SVG 20010904//EN"
 "http://www.w3.org/TR/2001/REC-SVG-20010904/DTD/svg10.dtd">
<svg version="1.0" xmlns="http://www.w3.org/2000/svg"
 width="1024.000000pt" height="1024.000000pt" viewBox="0 0 1024.000000 1024.000000"
 preserveAspectRatio="xMidYMid meet">
<metadata>
Created by potrace 1.14, written by Peter Selinger 2001-2017
</metadata>
<g transform="translate(0.000000,1024.000000) scale(0.100000,-0.100000)"
fill="#000000" stroke="none">
<path d="M5434 5779 c-23 -6 -59 -25 -80 -43 l-39 -34 -5 -448 -5 -449 -260
-6 c-256 -5 -261 -6 -319 -33 -81 -37 -167 -122 -202 -199 l-29 -62 -5 -575
c-3 -316 -7 -576 -8 -577 -1 -2 -54 -3 -118 -3 -233 0 -376 81 -471 267 l-38
76 -3 964 -3 963 -715 0 -716 0 7 -117 c15 -263 80 -588 182 -917 8 -23 -9
-33 -72 -41 -54 -7 -208 -39 -265 -54 -127 -36 -189 -55 -217 -67 -17 -8 -35
-14 -40 -14 -24 0 -238 -97 -310 -141 -243 -146 -326 -342 -199 -472 79 -82
156 -103 320 -86 55 5 143 9 194 7 l93 -3 -65 -34 c-281 -147 -448 -416 -449
-726 -1 -233 76 -425 235 -583 157 -158 366 -246 583 -246 78 0 190 16 230 33
11 5 47 19 80 32 93 36 173 88 253 163 135 128 215 283 247 480 17 101 16 139
-1 239 -4 21 -3 37 3 37 5 0 73 -64 151 -143 79 -78 166 -159 194 -179 l51
-38 1426 0 c1559 0 1500 -2 1578 57 19 15 46 45 60 66 13 21 27 36 31 32 4 -3
11 15 17 42 l11 48 13 -115 c25 -213 97 -367 241 -510 152 -153 317 -226 555
-247 93 -8 274 36 390 94 264 132 422 374 452 693 5 58 9 72 11 45 3 -40 21
-87 55 -138 43 -64 159 -87 237 -47 58 30 80 70 103 190 9 52 23 2631 13 2655
-2 7 -283 9 -823 7 l-820 -2 -12 -213 c-7 -116 -19 -261 -26 -322 -8 -60 -17
-145 -21 -187 -4 -43 -12 -82 -18 -87 -6 -5 -64 -11 -129 -13 -113 -5 -122 -7
-193 -43 -80 -41 -139 -97 -174 -165 -49 -97 -50 -104 -50 -620 0 -267 0 -495
0 -507 0 -26 -51 -62 -132 -93 -69 -26 -293 -29 -390 -4 -129 33 -234 108
-282 202 l-25 49 -7 1039 -7 1039 -38 37 c-54 52 -138 68 -235 47z m-2837
-2468 c219 -117 290 -386 156 -589 -175 -264 -568 -233 -710 56 -26 52 -28 66
-28 172 0 107 2 119 30 174 48 98 145 180 255 217 14 5 72 7 130 6 97 -3 110
-6 167 -36z m5157 4 c75 -37 142 -103 186 -185 34 -63 35 -68 35 -180 0 -103
-3 -121 -26 -170 -83 -175 -271 -269 -461 -229 -124 26 -224 107 -281 227 -30
62 -32 75 -32 172 0 98 2 110 32 170 36 73 96 139 161 178 79 45 110 52 222
49 91 -3 113 -7 164 -32z"/>
</g>
</svg>
